<svg width="197" height="172" viewBox="0 0 197 172" fill="none" xmlns="http://www.w3.org/2000/svg">
<path d="M107.886 168.612C104.471 174.842 95.5231 174.845 92.1043 168.617L6.85916 13.3309C3.56656 7.33301 7.90634 -1.5747e-06 14.7486 -9.76529e-07L185.246 1.39288e-05C192.089 1.45271e-05 196.429 7.33559 193.134 13.3336L136.906 115.68C133.677 121.557 125.385 121.965 121.594 116.434L119.442 113.293C117.622 110.637 117.359 107.211 118.753 104.309L152.807 33.3961C155.676 27.4214 151.322 20.5 144.694 20.5L116.5 20.5L64 20.5L55.8387 20.5C49.2028 20.5 44.8488 27.4367 47.7337 33.4127L48.5 35L67.5089 67.0335C70.7044 72.4185 78.721 71.672 80.8673 65.7896V65.7896C81.7296 63.4264 81.3364 60.7873 79.8228 58.778L76.0221 53.7329C70.3621 46.2196 78.5695 36.1548 87.0684 40.1863V40.1863C90.6026 41.8628 92.6493 45.6301 92.1324 49.5074L90.0122 65.4083C89.4028 69.9787 95.0715 72.5842 98.1433 69.1456V69.1456C101.783 65.0711 108.265 69.471 105.821 74.3577L91.6707 102.659C90.3175 105.365 90.431 108.573 91.972 111.177L101.04 126.5L113.967 148.337C115.586 151.072 115.643 154.46 114.115 157.247L107.886 168.612Z" fill="#44D62C"/>
<path d="M76.8146 34.0901C71.9791 31.9711 73.4918 24.75 78.7712 24.75L144.534 24.75C148.22 24.75 150.639 28.6038 149.036 31.9238L110.428 111.891C108.467 115.954 102.552 115.546 101.167 111.252L100.611 109.527C100.218 108.312 100.306 106.992 100.856 105.84L126 53.1346L131.535 41.6745C133.138 38.3545 130.72 34.5 127.033 34.5H95H78.7713C78.0977 34.5 77.4315 34.3604 76.8146 34.0901V34.0901Z" fill="#222222"/>
</svg>
